<svg width="142" height="134" viewBox="0 0 142 134" fill="none" xmlns="http://www.w3.org/2000/svg">
<g clip-path="url(#clip0_1038_2900)">
<path d="M41.4322 16.4133H31.5292V54.1387H22.3874V16.4133H12.4844V8.94336H41.4357V16.4133H41.4322Z" fill="white" stroke="white" stroke-miterlimit="10"/>
<path d="M31.5802 54.1914H22.3327V16.4659H12.4297V8.89062H41.4868V16.4659H31.5838V54.1914H31.5802ZM22.4384 54.086H31.4745V16.3605H41.3775V8.99603H12.5319V16.3605H22.4349V54.086H22.4384Z" fill="white" stroke="white" stroke-miterlimit="10"/>
<path d="M51.2204 26.3008C54.2336 26.3008 56.5772 27.0597 58.2512 28.5776C59.9252 30.0955 60.764 32.4074 60.764 35.5134C60.764 37.9167 60.2776 39.8773 59.3085 41.3987C58.3358 42.9166 56.8309 43.8933 54.7869 44.329V44.4309C56.5948 44.6979 57.9164 45.2812 58.7552 46.1842C59.5904 47.0872 60.112 48.5383 60.3129 50.5411C60.3798 51.2086 60.4292 51.9359 60.4644 52.7195C60.4961 53.503 60.5314 54.3814 60.5631 55.3476C60.63 57.252 60.7287 58.7031 60.8662 59.7045C61.067 60.7059 61.5005 61.391 62.1736 61.7564V62.0551H54.3393C53.9693 61.5562 53.7367 60.9799 53.6345 60.3264C53.5358 59.6764 53.4653 58.9983 53.4336 58.2991L53.2327 51.4405C53.1658 50.0386 52.8134 48.9353 52.179 48.1342C51.5411 47.3331 50.4698 46.9326 48.9649 46.9326H45.0989V62.0551H37.8672V26.3043H51.2275L51.2204 26.3008ZM48.1085 41.9257C49.8495 41.9257 51.1887 41.5181 52.1261 40.6995C53.0636 39.8808 53.5323 38.5035 53.5323 36.5675C53.5323 33.2612 51.8583 31.6098 48.5103 31.6098H45.0953V41.9257H48.1085Z" fill="white" stroke="white" stroke-miterlimit="10"/>
<path d="M62.2212 62.1043H54.3058L54.2917 62.0832C53.9216 61.5807 53.682 60.9904 53.5798 60.3334C53.4776 59.6799 53.4106 58.9947 53.3789 58.299L53.178 51.437C53.1111 50.0526 52.7587 48.9529 52.1349 48.1623C51.5111 47.3788 50.4433 46.9818 48.9631 46.9818H45.1499V62.1043H37.8125V26.248H51.2256C54.2388 26.248 56.6141 27.0175 58.2917 28.5389C59.9692 30.0603 60.8185 32.4074 60.8185 35.5134C60.8185 37.9167 60.3251 39.9054 59.3525 41.4268C58.3833 42.9411 56.8679 43.932 54.8415 44.3712V44.3852C56.6318 44.6558 57.9604 45.2496 58.7956 46.149C59.6379 47.0555 60.1665 48.5312 60.3674 50.5375C60.4344 51.2016 60.4837 51.9359 60.519 52.7194C60.5542 53.5416 60.5859 54.4235 60.6176 55.3476C60.6846 57.2379 60.7868 58.7031 60.9172 59.6974C61.1146 60.6742 61.5445 61.3559 62.1965 61.7107L62.2247 61.7248V62.1078L62.2212 62.1043ZM54.3622 62.0024H62.119V61.7845C61.4529 61.4086 61.0159 60.7094 60.815 59.7115C60.6811 58.7066 60.5789 57.2414 60.5119 55.3476C60.4802 54.4235 60.445 53.5381 60.4132 52.7194C60.378 51.9394 60.3287 51.2051 60.2617 50.5445C60.0643 48.5629 59.5428 47.1082 58.7181 46.2193C57.8934 45.3304 56.5683 44.7471 54.7816 44.4836L54.7357 44.4766V44.2903L54.778 44.2798C56.7974 43.8511 58.3058 42.8744 59.2643 41.3741C60.2265 39.8702 60.7128 37.9026 60.7128 35.5204C60.7128 32.446 59.874 30.1271 58.2177 28.6232C56.5613 27.1194 54.2071 26.357 51.2221 26.357H37.9147V62.0059H45.0406V46.8834H48.9596C50.475 46.8834 51.571 47.2945 52.2159 48.1061C52.8538 48.9107 53.2133 50.0351 53.2802 51.4405L53.4811 58.3025C53.5128 58.9912 53.5798 59.6728 53.682 60.3229C53.7807 60.9553 54.0062 61.521 54.3587 62.0059L54.3622 62.0024ZM48.1067 41.9749H45.0406V31.5536H48.5085C51.8776 31.5536 53.5833 33.2401 53.5833 36.564C53.5833 38.507 53.104 39.9089 52.1595 40.7346C51.2151 41.5568 49.8547 41.9749 48.1067 41.9749ZM45.1464 41.873H48.1067C49.8265 41.873 51.1657 41.4654 52.0891 40.6608C53.0089 39.8562 53.4776 38.4789 53.4776 36.5675C53.4776 33.3139 51.8071 31.6625 48.5085 31.6625H45.1464V41.873Z" fill="white" stroke="white" stroke-miterlimit="10"/>
<path d="M87.2965 32.088H74.4895V40.4995H86.5423V46.4094H74.4895V56.0226H87.8004V61.9324H67.2578V26.1816H87.2965V32.0915V32.088Z" fill="white" stroke="white" stroke-miterlimit="10"/>
<path d="M87.8515 61.9851H67.2031V26.1289H87.3475V32.1407H74.5405V40.4468H86.5933V46.4586H74.5405V55.9663H87.8515V61.9781V61.9851ZM67.3089 61.8797H87.7457V56.0753H74.4348V46.3567H86.4876V40.5522H74.4348V32.0353H87.2418V26.2308H67.3089V61.8797Z" fill="white" stroke="white" stroke-miterlimit="10"/>
<path d="M54.8873 94.3456H54.9895V69.8594H61.6185V105.61H53.3824L44.5437 80.5723H44.4415V105.61H37.8125V69.8594H46.1508L54.8908 94.3456H54.8873Z" fill="white" stroke="white" stroke-miterlimit="10"/>
<path d="M61.6696 105.663H53.3419L53.3313 105.628L44.5031 80.625H44.4926V105.663H37.7578V69.8066H46.1842L46.1948 69.8418L54.9207 94.2929H54.9313V69.8066H61.666V105.663H61.6696ZM53.4159 105.561H61.5638V69.912H55.0405V94.3983H54.8502L54.8396 94.3631L46.1137 69.912H37.8671V105.561H44.3904V80.5231H44.5807L44.5912 80.5582L53.4194 105.561H53.4159Z" fill="white" stroke="white" stroke-miterlimit="10"/>
<path d="M78.6054 69.7344C81.1182 69.7344 83.1411 70.1419 84.6812 70.9606C86.2212 71.7793 87.4195 72.9458 88.2723 74.4672C89.1252 75.9851 89.7032 77.8156 90.0062 79.9519C90.3058 82.0882 90.4573 84.4774 90.4573 87.1126C90.4573 90.2502 90.2635 92.9803 89.8794 95.2993C89.4952 97.6182 88.8327 99.5296 87.8952 101.033C86.9578 102.537 85.7032 103.655 84.1279 104.389C82.5525 105.123 80.5614 105.492 78.1508 105.492H66.75V69.7414H78.6019L78.6054 69.7344ZM77.1993 100.18C78.4715 100.18 79.4935 99.9618 80.2618 99.5296C81.0301 99.0975 81.6433 98.3772 82.0944 97.3758C82.5455 96.3744 82.8486 95.0568 83.0001 93.4195C83.1517 91.7857 83.2257 89.7478 83.2257 87.3094C83.2257 85.275 83.1587 83.4866 83.0248 81.9511C82.8909 80.4157 82.616 79.1403 82.1966 78.1213C81.7772 77.1024 81.157 76.3364 80.3393 75.8164C79.5182 75.2999 78.4222 75.0399 77.0513 75.0399H73.9887V100.176H77.2028L77.1993 100.18Z" fill="white" stroke="white" stroke-miterlimit="10"/>
<path d="M78.149 105.542H66.6953V69.6855H78.6001C81.1058 69.6855 83.1604 70.1001 84.7005 70.9188C86.2441 71.7375 87.4599 72.9251 88.3128 74.4429C89.1657 75.9608 89.7507 77.8125 90.0502 79.9452C90.3498 82.0745 90.5013 84.4848 90.5013 87.113C90.5013 90.2365 90.3075 92.9947 89.9234 95.3102C89.5392 97.6256 88.8696 99.5616 87.9322 101.062C86.9912 102.566 85.719 103.701 84.1437 104.435C82.5719 105.169 80.5525 105.542 78.1455 105.542H78.149ZM66.801 105.436H78.149C80.5419 105.436 82.5437 105.067 84.1049 104.34C85.6626 103.613 86.9207 102.492 87.8511 101.006C88.7815 99.5159 89.4441 97.594 89.8282 95.2926C90.2123 92.9842 90.4062 90.233 90.4062 87.113C90.4062 84.4918 90.2546 82.085 89.9551 79.9593C89.6555 77.8406 89.074 76.003 88.2282 74.4956C87.3824 72.9953 86.1842 71.8218 84.6582 71.0102C83.1322 70.1985 81.0952 69.791 78.6071 69.791H66.8081V105.44L66.801 105.436ZM77.1975 100.233H73.9305V74.9911H77.0459C78.4203 74.9911 79.5375 75.2546 80.3622 75.7746C81.1869 76.2946 81.8212 77.0781 82.2406 78.1041C82.66 79.1231 82.9384 80.4161 83.0723 81.9515C83.2062 83.4869 83.2732 85.2894 83.2732 87.3132C83.2732 89.7411 83.1957 91.7966 83.0476 93.4269C82.8961 95.0607 82.593 96.3959 82.1384 97.4008C81.6838 98.4092 81.06 99.14 80.2847 99.5792C79.5093 100.015 78.4697 100.236 77.1939 100.236L77.1975 100.233ZM74.0327 100.127H77.1939C78.4521 100.127 79.4741 99.9095 80.2318 99.4843C80.9895 99.0592 81.5957 98.3424 82.0432 97.3551C82.4908 96.3643 82.7939 95.0396 82.9419 93.4163C83.0935 91.7896 83.1675 89.7376 83.1675 87.3132C83.1675 85.2929 83.1005 83.4904 82.9666 81.9585C82.8327 80.4371 82.5542 79.1512 82.1419 78.1428C81.7296 77.1414 81.1093 76.3719 80.3058 75.8624C79.4988 75.353 78.3992 75.093 77.0459 75.093H74.0362V100.124L74.0327 100.127Z" fill="white" stroke="white" stroke-miterlimit="10"/>
<path d="M105.596 28.6545C105.364 28.1802 105.053 27.7972 104.666 27.502C104.278 27.2069 103.82 26.9961 103.291 26.8696C102.759 26.7431 102.192 26.6799 101.582 26.6799C101.113 26.6799 100.627 26.7255 100.12 26.8204C99.612 26.9153 99.1539 27.0839 98.7451 27.3228C98.3327 27.5618 97.9944 27.8815 97.7301 28.2785C97.4658 28.6756 97.3319 29.178 97.3319 29.7824C97.3319 30.3867 97.4693 30.8751 97.7407 31.2405C98.012 31.6059 98.368 31.9011 98.805 32.1294C99.242 32.3578 99.7389 32.5335 100.296 32.66C100.853 32.7865 101.42 32.92 102.005 33.057C102.636 33.2222 103.235 33.3803 103.799 33.5314C104.363 33.6824 104.853 33.8862 105.268 34.1357C105.684 34.3887 106.019 34.7225 106.266 35.1371C106.512 35.5517 106.636 36.1138 106.636 36.8201C106.636 37.4631 106.495 38.0112 106.22 38.4644C105.941 38.9177 105.575 39.2937 105.12 39.5888C104.666 39.8839 104.151 40.0983 103.584 40.2318C103.013 40.3653 102.438 40.4321 101.857 40.4321C101.085 40.4321 100.373 40.3442 99.7213 40.1685C99.0693 39.9929 98.5054 39.7118 98.0332 39.3253C97.5574 38.9423 97.1909 38.4469 96.9336 37.839C96.6728 37.2347 96.5495 36.5039 96.5636 35.643H96.9442C96.9442 36.4512 97.064 37.1363 97.3037 37.695C97.5433 38.2571 97.8816 38.7139 98.3186 39.0653C98.7556 39.4201 99.2737 39.6731 99.8763 39.8312C100.475 39.9893 101.138 40.0666 101.86 40.0666C102.393 40.0666 102.921 40.0069 103.446 39.8874C103.971 39.768 104.444 39.5747 104.86 39.3112C105.275 39.0477 105.614 38.7069 105.875 38.2888C106.135 37.8742 106.262 37.3752 106.262 36.7955C106.262 36.1138 106.114 35.5763 105.815 35.1792C105.519 34.7822 105.138 34.466 104.676 34.2341C104.215 34.0022 103.704 33.823 103.14 33.7035C102.576 33.5841 102.037 33.4611 101.519 33.3346C100.976 33.2081 100.43 33.0746 99.8869 32.9376C99.3442 32.8005 98.8543 32.6073 98.4173 32.3613C97.9803 32.1154 97.6314 31.7886 97.3636 31.3775C97.0993 30.9664 96.9653 30.4359 96.9653 29.7788C96.9653 29.1218 97.1028 28.5526 97.3812 28.1029C97.6596 27.6566 98.0191 27.2982 98.4631 27.0347C98.9072 26.7712 99.4041 26.5815 99.9539 26.4655C100.504 26.3531 101.05 26.2969 101.596 26.2969C102.266 26.2969 102.882 26.3707 103.446 26.5147C104.01 26.6588 104.504 26.8942 104.927 27.2139C105.349 27.5372 105.688 27.9588 105.941 28.4823C106.195 29.0059 106.34 29.6453 106.379 30.4043H105.998C105.973 29.7121 105.843 29.1288 105.61 28.6545H105.596Z" fill="white" stroke="white" stroke-miterlimit="10"/>
<path d="M101.843 40.4855C101.071 40.4855 100.349 40.3942 99.6932 40.2185C99.0377 40.0393 98.4633 39.7547 97.984 39.3682C97.5047 38.9782 97.1311 38.4722 96.8668 37.8644C96.606 37.2565 96.4791 36.5116 96.4932 35.6473V35.5946H96.9796V35.6473C96.9796 36.4449 97.0994 37.1265 97.3355 37.6782C97.5716 38.2298 97.9064 38.683 98.3364 39.0309C98.7664 39.3787 99.2809 39.6317 99.873 39.7863C100.465 39.9409 101.128 40.0217 101.843 40.0217C102.368 40.0217 102.897 39.962 103.415 39.8425C103.933 39.7266 104.402 39.5333 104.81 39.2733C105.219 39.0133 105.554 38.676 105.808 38.2684C106.061 37.8609 106.188 37.369 106.188 36.7998C106.188 36.1322 106.04 35.6016 105.751 35.2151C105.459 34.8251 105.082 34.5124 104.631 34.284C104.176 34.0556 103.661 33.8764 103.105 33.7605C102.548 33.641 102.002 33.5181 101.48 33.3916C100.941 33.2686 100.391 33.1316 99.8483 32.9945C99.302 32.854 98.8051 32.6607 98.3646 32.4113C97.9241 32.1618 97.5611 31.8245 97.2932 31.4099C97.0219 30.9918 96.888 30.4472 96.888 29.7831C96.888 29.119 97.0324 28.5358 97.3144 28.0825C97.5963 27.6293 97.9664 27.2639 98.4139 26.9968C98.8615 26.7298 99.3655 26.5366 99.9188 26.4241C100.469 26.3117 101.025 26.252 101.572 26.252C102.241 26.252 102.869 26.3257 103.436 26.4698C104.003 26.6174 104.507 26.8563 104.934 27.1795C105.364 27.5063 105.709 27.9385 105.963 28.4655C106.217 28.9926 106.368 29.6461 106.403 30.405V30.4612H105.92V30.412C105.892 29.7269 105.765 29.1472 105.536 28.6834C105.307 28.2196 105.001 27.8366 104.624 27.5485C104.243 27.2568 103.788 27.0495 103.267 26.923C102.336 26.7017 101.269 26.663 100.12 26.8774C99.6227 26.9687 99.1646 27.1374 98.7593 27.3728C98.3575 27.6082 98.0228 27.9244 97.762 28.3109C97.5047 28.6974 97.3708 29.1928 97.3708 29.7866C97.3708 30.3804 97.5047 30.8583 97.769 31.2131C98.0333 31.5715 98.3857 31.8632 98.8122 32.088C99.2421 32.3129 99.739 32.4886 100.289 32.6116C100.839 32.7345 101.413 32.868 101.998 33.0086C102.632 33.1737 103.228 33.3318 103.792 33.4829C104.356 33.634 104.856 33.8413 105.276 34.0943C105.698 34.3508 106.04 34.6951 106.291 35.1167C106.541 35.5384 106.668 36.1146 106.668 36.8279C106.668 37.4779 106.523 38.0401 106.241 38.5003C105.959 38.9606 105.586 39.3436 105.124 39.6423C104.666 39.9409 104.144 40.1588 103.57 40.2923C102.999 40.4258 102.414 40.4925 101.832 40.4925L101.843 40.4855ZM96.6025 35.7C96.5954 36.5257 96.7188 37.239 96.969 37.8222C97.2228 38.416 97.5893 38.9079 98.0545 39.2874C98.5197 39.6668 99.0835 39.9444 99.7249 40.1201C100.37 40.2958 101.082 40.3836 101.847 40.3836C102.421 40.3836 102.999 40.3169 103.563 40.1869C104.123 40.0569 104.634 39.8425 105.082 39.5509C105.529 39.2593 105.892 38.8868 106.167 38.4406C106.439 37.9979 106.576 37.4533 106.576 36.8208C106.576 36.1287 106.453 35.57 106.213 35.1624C105.973 34.7548 105.642 34.4246 105.233 34.1786C104.821 33.9292 104.331 33.7289 103.778 33.5778C103.214 33.4267 102.618 33.2686 101.984 33.1035C101.399 32.9629 100.824 32.8294 100.278 32.7064C99.7214 32.5799 99.2139 32.4007 98.7769 32.1724C98.3364 31.944 97.9699 31.6383 97.695 31.2694C97.4166 30.8969 97.2756 30.3945 97.2756 29.7831C97.2756 29.1717 97.4131 28.6552 97.6844 28.2512C97.9523 27.8506 98.3012 27.5239 98.717 27.2779C99.1329 27.0355 99.6016 26.8668 100.109 26.772C101.272 26.5541 102.354 26.5963 103.298 26.8212C103.834 26.9476 104.303 27.1655 104.694 27.4641C105.085 27.7628 105.402 28.1598 105.639 28.6377C105.868 29.1015 106.002 29.6812 106.03 30.3593H106.305C106.262 29.6355 106.118 29.0171 105.875 28.5147C105.624 28.0017 105.29 27.5801 104.874 27.2674C104.458 26.9512 103.965 26.7193 103.411 26.5752C102.854 26.4311 102.238 26.3609 101.575 26.3609C101.036 26.3609 100.49 26.4171 99.9434 26.5295C99.4007 26.642 98.9073 26.8317 98.4703 27.0917C98.0368 27.3517 97.6774 27.7066 97.406 28.1423C97.1346 28.578 96.9972 29.1331 96.9972 29.7901C96.9972 30.4472 97.1276 30.9602 97.3884 31.3607C97.6492 31.7613 97.9946 32.088 98.4245 32.327C98.8545 32.5694 99.3479 32.7626 99.8835 32.8997C100.426 33.0402 100.976 33.1737 101.515 33.2967C102.033 33.4232 102.58 33.5462 103.136 33.6656C103.7 33.7851 104.222 33.9643 104.687 34.1997C105.152 34.4351 105.543 34.7584 105.843 35.1624C106.146 35.5665 106.298 36.1216 106.298 36.8103C106.298 37.3971 106.164 37.9101 105.899 38.3317C105.635 38.7533 105.29 39.1012 104.867 39.3682C104.447 39.6352 103.965 39.832 103.436 39.9514C102.911 40.0709 102.372 40.1342 101.839 40.1342C101.117 40.1342 100.444 40.0533 99.8448 39.8952C99.2386 39.7371 98.71 39.4771 98.2694 39.1187C97.8289 38.7603 97.48 38.293 97.2404 37.7273C97.0043 37.1757 96.8809 36.4941 96.8774 35.707H96.6025V35.7Z" fill="white" stroke="white" stroke-miterlimit="10"/>
<path d="M96.7883 57.3148V43.8086H102.272C103.576 43.8086 104.587 44.1178 105.306 44.7362C106.029 45.3546 106.388 46.2751 106.388 47.4979C106.388 48.0917 106.279 48.6187 106.064 49.079C105.849 49.5393 105.553 49.9258 105.172 50.2314C104.792 50.5406 104.341 50.7725 103.816 50.9306C103.29 51.0888 102.712 51.1661 102.078 51.1661H97.1619V57.3148H96.7812H96.7883ZM102.272 50.7901C102.804 50.7901 103.298 50.7163 103.752 50.5723C104.207 50.4282 104.601 50.2139 104.94 49.9293C105.275 49.6447 105.539 49.3003 105.726 48.8998C105.916 48.4957 106.011 48.0284 106.011 47.5014C106.011 46.4297 105.705 45.6111 105.091 45.0419C104.478 44.4727 103.537 44.1916 102.272 44.1916H97.1689V50.7936H102.272V50.7901Z" fill="white" stroke="white" stroke-miterlimit="10"/>
<path d="M97.2207 57.3675H96.7344V43.7559H102.271C103.582 43.7559 104.615 44.0721 105.34 44.694C106.07 45.3194 106.44 46.2611 106.44 47.4943C106.44 48.0916 106.331 48.6327 106.112 49.0965C105.894 49.5638 105.591 49.9573 105.207 50.2701C104.822 50.5828 104.361 50.8217 103.832 50.9798C103.304 51.1379 102.715 51.2187 102.081 51.2187H97.2172V57.3675H97.2207ZM96.8401 57.2621H97.115V51.1133H102.081C102.704 51.1133 103.286 51.036 103.8 50.8779C104.318 50.7233 104.766 50.4914 105.14 50.1892C105.51 49.8871 105.806 49.5041 106.017 49.0544C106.229 48.6046 106.334 48.0776 106.334 47.4978C106.334 46.2962 105.975 45.3791 105.27 44.7748C104.562 44.1669 103.55 43.8613 102.267 43.8613H96.8366V57.2656L96.8401 57.2621ZM102.271 50.8393H97.115V44.1318H102.271C103.543 44.1318 104.505 44.4234 105.126 44.9962C105.746 45.5724 106.063 46.4121 106.063 47.4943C106.063 48.0284 105.964 48.5098 105.774 48.9173C105.584 49.3249 105.312 49.6798 104.974 49.9644C104.636 50.2525 104.23 50.4703 103.769 50.6179C103.311 50.7655 102.807 50.8393 102.271 50.8393ZM97.2207 50.7374H102.271C102.796 50.7374 103.286 50.6636 103.733 50.523C104.178 50.3825 104.572 50.1682 104.9 49.8906C105.228 49.613 105.489 49.2722 105.675 48.8787C105.862 48.4852 105.954 48.0214 105.954 47.5013C105.954 46.4508 105.651 45.6356 105.052 45.0805C104.449 44.5253 103.515 44.2442 102.271 44.2442H97.2207V50.7409V50.7374Z" fill="white" stroke="white" stroke-miterlimit="10"/>
<path d="M101.779 57.3477V70.8539H101.398V57.3477H101.779Z" fill="white" stroke="white" stroke-miterlimit="10"/>
<path d="M101.83 70.9105H101.344V57.2988H101.83V70.9105ZM101.449 70.8051H101.724V57.4007H101.449V70.8051Z" fill="white" stroke="white" stroke-miterlimit="10"/>
<path d="M96.7031 87.9125V74.4062H102.243C103.66 74.4062 104.696 74.6873 105.355 75.2495C106.014 75.8117 106.356 76.6831 106.381 77.8707C106.405 78.7772 106.166 79.5326 105.658 80.1299C105.151 80.7307 104.425 81.1348 103.477 81.3491V81.3878C104.048 81.4651 104.509 81.5986 104.862 81.7953C105.214 81.9921 105.489 82.2451 105.679 82.5613C105.87 82.8775 105.996 83.25 106.06 83.6786C106.123 84.1073 106.155 84.5922 106.155 85.1368C106.155 85.3265 106.162 85.5619 106.173 85.8465C106.187 86.1311 106.204 86.4122 106.229 86.6898C106.254 86.9673 106.285 87.2203 106.324 87.4452C106.363 87.6701 106.412 87.8317 106.476 87.9195H106.06C105.996 87.7825 105.947 87.5963 105.908 87.3609C105.87 87.129 105.841 86.8795 105.824 86.6125C105.806 86.349 105.792 86.0784 105.785 85.8079C105.778 85.5373 105.774 85.2949 105.774 85.0805C105.774 84.5254 105.732 84.03 105.651 83.5943C105.57 83.1586 105.401 82.7932 105.147 82.4981C104.893 82.2029 104.534 81.9745 104.065 81.8164C103.596 81.6583 102.969 81.581 102.187 81.581H97.0837V87.9195H96.7031V87.9125ZM102.148 81.1945C102.656 81.1945 103.138 81.1313 103.6 81.0048C104.062 80.8783 104.47 80.678 104.823 80.4004C105.175 80.1229 105.461 79.7715 105.676 79.3499C105.891 78.9282 106 78.4188 106 77.8285C105.986 76.8693 105.697 76.1244 105.126 75.5868C104.555 75.0492 103.628 74.7822 102.335 74.7822H97.0802V81.1945H102.148Z" fill="white" stroke="white" stroke-miterlimit="10"/>
<path d="M106.576 87.9652H106.023L106.009 87.9335C105.945 87.793 105.892 87.5998 105.854 87.3608C105.815 87.1254 105.787 86.8724 105.769 86.6089C105.751 86.3419 105.737 86.0713 105.73 85.8008C105.723 85.5408 105.72 85.2948 105.72 85.07C105.72 84.5219 105.677 84.0264 105.596 83.5943C105.515 83.1691 105.35 82.8107 105.107 82.5226C104.86 82.2345 104.504 82.0096 104.049 81.8585C103.588 81.704 102.964 81.6267 102.188 81.6267H97.1348V87.9652H96.6484V74.3535H102.241C103.665 74.3535 104.722 74.6416 105.388 75.2073C106.055 75.7765 106.407 76.6725 106.432 77.8671C106.456 78.7842 106.21 79.5571 105.699 80.1615C105.216 80.7307 104.529 81.1347 103.655 81.3596C104.151 81.4404 104.564 81.5704 104.888 81.7461C105.248 81.9464 105.529 82.2099 105.723 82.5296C105.917 82.8494 106.044 83.2324 106.111 83.6645C106.174 84.0967 106.206 84.5886 106.206 85.1297C106.206 85.3194 106.213 85.5584 106.224 85.8359C106.238 86.1205 106.255 86.4016 106.28 86.6757C106.305 86.9497 106.336 87.2027 106.375 87.4276C106.41 87.6454 106.46 87.7965 106.52 87.8773L106.58 87.9617L106.576 87.9652ZM106.09 87.8598H106.382C106.336 87.7614 106.298 87.6279 106.27 87.4487C106.231 87.2203 106.199 86.9638 106.174 86.6897C106.15 86.4157 106.129 86.1311 106.118 85.8465C106.104 85.5654 106.1 85.3265 106.1 85.1332C106.1 84.5956 106.069 84.1108 106.005 83.6856C105.942 83.264 105.818 82.8951 105.632 82.5894C105.448 82.2837 105.181 82.0307 104.835 81.841C104.486 81.6477 104.028 81.5142 103.468 81.4404L103.422 81.4334V81.3069L103.464 81.2964C104.398 81.0856 105.121 80.6815 105.618 80.0947C106.111 79.508 106.351 78.7596 106.326 77.8706C106.301 76.7041 105.963 75.8362 105.318 75.2881C104.673 74.7365 103.637 74.4589 102.241 74.4589H96.7542V87.8633H97.029V81.5248H102.185C102.971 81.5248 103.609 81.6056 104.081 81.7637C104.557 81.9253 104.927 82.1572 105.184 82.4594C105.441 82.7615 105.614 83.1375 105.699 83.5802C105.78 84.0159 105.822 84.5183 105.822 85.0735C105.822 85.2984 105.822 85.5408 105.833 85.8008C105.84 86.0678 105.85 86.3384 105.871 86.6019C105.889 86.8619 105.917 87.1114 105.956 87.3433C105.991 87.5541 106.033 87.7262 106.09 87.8562V87.8598ZM102.146 81.2472H97.0255V74.7295H102.333C103.63 74.7295 104.581 75.0035 105.159 75.5481C105.737 76.0927 106.037 76.8587 106.047 77.8285C106.047 78.4258 105.938 78.9493 105.72 79.3744C105.501 79.8031 105.209 80.1615 104.853 80.4426C104.493 80.7237 104.077 80.931 103.609 81.0575C103.144 81.1839 102.65 81.2472 102.143 81.2472H102.146ZM97.1313 81.1418H102.146C102.647 81.1418 103.129 81.0785 103.584 80.9556C104.035 80.8326 104.44 80.6323 104.789 80.3582C105.135 80.0877 105.417 79.7399 105.628 79.3252C105.84 78.9106 105.945 78.4082 105.945 77.8249C105.931 76.8868 105.646 76.1454 105.089 75.6219C104.532 75.0984 103.605 74.8314 102.337 74.8314H97.1313V81.1383V81.1418Z" fill="white" stroke="white" stroke-miterlimit="10"/>
<path d="M106.126 105.107V105.487H97.0547V91.9805H106.048V92.3599H97.4318V98.2628H105.534V98.6422H97.4318V105.111H106.122L106.126 105.107Z" fill="white" stroke="white" stroke-miterlimit="10"/>
<path d="M106.177 105.539H97V91.9277H106.1V92.4126H97.4828V98.21H105.585V98.6949H97.4828V105.062H106.174V105.546L106.177 105.539ZM97.1057 105.434H106.071V105.16H97.3806V98.586H105.483V98.3119H97.3806V92.3037H105.997V92.0296H97.1092V105.434H97.1057Z" fill="white" stroke="white" stroke-miterlimit="10"/>
<path d="M43.0628 111.281H43.9121L48.8988 123.87H48.0671L46.4742 119.833H40.4267L38.8161 123.87H37.9844L43.0592 111.281H43.0628ZM46.231 119.162L43.5244 112.04H43.4892L40.6769 119.162H46.231Z" fill="white" stroke="white" stroke-miterlimit="10"/>
<path d="M49.2451 124.105H47.9059L46.3129 120.068H40.5861L38.9755 124.105H37.6328L42.898 111.045H44.068L49.2415 124.105H49.2451ZM48.2266 123.634H48.5508L43.7508 111.516H43.2222L38.3377 123.634H38.6584L40.2689 119.597H46.6372L48.2301 123.634H48.2266ZM46.5702 119.397H40.3288L43.3279 111.804H43.6874L46.5737 119.397H46.5702ZM41.0196 118.926H45.883L43.4971 112.647L41.0196 118.926Z" fill="white" stroke="white" stroke-miterlimit="10"/>
<path d="M48.9275 123.891H48.0535V123.877L46.4606 119.85H40.4377L38.8271 123.887H37.9531L37.9637 123.859L43.0456 111.256H43.9196L48.924 123.884L48.9275 123.891ZM48.0782 123.852H48.8676L43.8949 111.302H43.0738L38.013 123.852H38.8025L40.413 119.815H46.4888V119.829L48.0817 123.856L48.0782 123.852ZM46.2562 119.183H40.6456L40.6562 119.154L43.472 112.018H43.5355V112.032L46.2562 119.183ZM40.702 119.144H46.1962L43.5038 112.06H43.4967L40.6985 119.144H40.702Z" fill="white" stroke="white" stroke-miterlimit="10"/>
<path d="M49.2745 124.126H47.893L47.8331 123.978L46.3001 120.089H40.6014L38.9909 124.126H37.6094L37.7503 123.774L42.8922 111.023H44.0869L49.278 124.122L49.2745 124.126ZM48.2419 123.616H48.5238L43.738 111.536H43.2375L38.3671 123.616H38.6455L40.2561 119.579H46.6525L46.7124 119.727L48.2454 123.616H48.2419ZM46.5996 119.417H40.2983L43.3115 111.782H43.6992L43.7556 111.933L46.5961 119.414L46.5996 119.417ZM41.049 118.908H45.856L43.4983 112.703L41.049 118.908Z" fill="white" stroke="white" stroke-miterlimit="10"/>
<path d="M49.0234 117.646C49.0234 116.753 49.1574 115.903 49.4217 115.098C49.686 114.294 50.0737 113.584 50.5811 112.973C51.0886 112.361 51.7089 111.876 52.4454 111.518C53.182 111.16 54.0278 110.98 54.9829 110.98C55.6313 110.98 56.2516 111.075 56.8401 111.262C57.4287 111.451 57.9573 111.725 58.4225 112.091C58.8877 112.456 59.2789 112.895 59.5996 113.412C59.9168 113.928 60.1317 114.519 60.2375 115.176H59.4939C59.1978 114.072 58.6692 113.208 57.9009 112.583C57.1326 111.961 56.167 111.648 55.0005 111.648C54.1512 111.648 53.404 111.813 52.7556 112.14C52.1071 112.47 51.5644 112.909 51.1274 113.461C50.6904 114.013 50.3591 114.652 50.1371 115.372C49.9115 116.096 49.8023 116.852 49.8023 117.639C49.8023 118.426 49.9115 119.192 50.13 119.905C50.3485 120.615 50.6728 121.237 51.1027 121.764C51.5327 122.294 52.0719 122.712 52.7203 123.025C53.3688 123.338 54.13 123.492 55.0005 123.492C55.7547 123.492 56.4348 123.369 57.034 123.123C57.6366 122.877 58.1441 122.53 58.5635 122.083C58.9828 121.637 59.2965 121.1 59.5115 120.471C59.7229 119.842 59.811 119.139 59.7758 118.363H55.1238V117.691H60.4454V123.861H59.7723V121.18H59.737C59.582 121.641 59.3529 122.052 59.0463 122.424C58.7397 122.793 58.3767 123.106 57.9573 123.359C57.5379 123.612 57.0727 123.809 56.5617 123.949C56.0472 124.09 55.515 124.16 54.9617 124.16C54.0067 124.16 53.1609 123.988 52.4243 123.65C51.6877 123.31 51.064 122.846 50.56 122.259C50.0525 121.672 49.6684 120.98 49.4111 120.186C49.1503 119.392 49.0234 118.545 49.0234 117.639V117.646Z" fill="white" stroke="white" stroke-miterlimit="10"/>
<path d="M54.967 124.407C53.9837 124.407 53.0956 124.227 52.3309 123.872C51.5661 123.518 50.9106 123.029 50.3855 122.418C49.8604 121.81 49.4587 121.086 49.1908 120.264C48.9265 119.452 48.7891 118.57 48.7891 117.643C48.7891 116.715 48.9265 115.847 49.1979 115.022C49.4728 114.193 49.8745 113.451 50.3996 112.822C50.9247 112.186 51.5802 111.677 52.345 111.304C53.1097 110.932 54.0014 110.742 54.9881 110.742C55.6577 110.742 56.3062 110.841 56.9159 111.034C57.5291 111.231 58.0859 111.522 58.5723 111.902C59.0586 112.281 59.4709 112.748 59.8057 113.286C60.1405 113.827 60.3626 114.449 60.4753 115.134L60.5176 115.408H59.3159L59.2701 115.233C58.9881 114.182 58.4806 113.353 57.7582 112.763C57.0392 112.179 56.1124 111.881 55.0058 111.881C54.1987 111.881 53.4798 112.039 52.8666 112.348C52.2498 112.661 51.7318 113.082 51.3194 113.606C50.9036 114.133 50.5829 114.751 50.3679 115.443C50.1529 116.139 50.0437 116.88 50.0437 117.639C50.0437 118.398 50.1494 119.15 50.3609 119.835C50.5688 120.513 50.8824 121.114 51.2913 121.617C51.6965 122.116 52.2146 122.52 52.8278 122.815C53.441 123.11 54.1741 123.258 55.0058 123.258C55.7247 123.258 56.3802 123.138 56.9511 122.906C57.5185 122.674 58.0049 122.344 58.3996 121.922C58.7943 121.504 59.0938 120.988 59.2947 120.394C59.4745 119.856 59.5626 119.252 59.5555 118.599H54.8965V117.457H60.6938V124.101H59.5485V122.154C59.4568 122.302 59.3546 122.442 59.2419 122.576C58.9212 122.966 58.5335 123.296 58.093 123.563C57.6595 123.827 57.1696 124.034 56.6375 124.178C56.1053 124.326 55.5485 124.4 54.974 124.4L54.967 124.407ZM54.9846 111.217C54.0718 111.217 53.2507 111.389 52.5494 111.73C51.8445 112.07 51.2454 112.541 50.7626 113.121C50.2763 113.708 49.9027 114.396 49.6454 115.169C49.3882 115.946 49.2578 116.779 49.2578 117.643C49.2578 118.507 49.3847 119.35 49.6349 120.116C49.8851 120.875 50.2551 121.546 50.7379 122.109C51.2208 122.667 51.8199 123.117 52.5247 123.44C53.226 123.764 54.0472 123.929 54.9635 123.929C55.4956 123.929 56.0102 123.862 56.5 123.725C56.9899 123.591 57.441 123.398 57.8357 123.159C58.2304 122.92 58.5758 122.625 58.8648 122.277C59.1502 121.933 59.3687 121.539 59.5132 121.111L59.5379 121.037C59.33 121.494 59.0621 121.898 58.7344 122.246C58.2938 122.717 57.7511 123.085 57.1203 123.342C56.493 123.598 55.7776 123.728 54.9952 123.728C54.0895 123.728 53.2895 123.563 52.6128 123.237C51.9362 122.91 51.3653 122.467 50.9142 121.912C50.4666 121.364 50.1247 120.71 49.8992 119.972C49.6736 119.242 49.5609 118.458 49.5609 117.639C49.5609 116.821 49.6772 116.048 49.9062 115.303C50.1388 114.554 50.4842 113.887 50.9353 113.314C51.3899 112.738 51.9644 112.271 52.641 111.926C53.3212 111.582 54.1106 111.406 54.9952 111.406C56.211 111.406 57.2401 111.74 58.0436 112.394C58.8049 113.012 59.3511 113.866 59.6648 114.934H59.9432C59.8304 114.417 59.6471 113.947 59.3899 113.528C59.0868 113.037 58.7097 112.615 58.2692 112.267C57.8287 111.923 57.3212 111.656 56.7608 111.477C56.1969 111.297 55.5978 111.206 54.9776 111.206L54.9846 111.217ZM60.0137 123.634H60.2145V117.935H55.3652V118.135H60.0066L60.0172 118.36C60.0524 119.161 59.9608 119.899 59.7388 120.552C59.693 120.689 59.6401 120.826 59.5837 120.956H60.0172V123.637L60.0137 123.634Z" fill="white" stroke="white" stroke-miterlimit="10"/>
<path d="M54.9672 124.189C54.0157 124.189 53.1558 124.017 52.4228 123.676C51.6862 123.335 51.0554 122.865 50.5514 122.278C50.0439 121.691 49.6563 120.992 49.399 120.198C49.1417 119.407 49.0078 118.546 49.0078 117.643C49.0078 116.74 49.1417 115.894 49.406 115.089C49.6704 114.284 50.0616 113.568 50.569 112.956C51.0765 112.345 51.7038 111.853 52.4404 111.498C53.177 111.14 54.0333 110.957 54.9884 110.957C55.6333 110.957 56.2606 111.052 56.8527 111.242C57.4412 111.428 57.9769 111.709 58.4421 112.074C58.9073 112.44 59.3055 112.886 59.6227 113.402C59.9399 113.919 60.1549 114.516 60.2606 115.173V115.194H59.4818V115.18C59.1857 114.084 58.6536 113.216 57.8923 112.598C57.1311 111.979 56.162 111.667 55.006 111.667C54.1637 111.667 53.4131 111.832 52.7681 112.159C52.1267 112.485 51.5805 112.928 51.147 113.476C50.7135 114.024 50.3823 114.667 50.1602 115.384C49.9382 116.101 49.8254 116.863 49.8254 117.643C49.8254 118.423 49.9347 119.196 50.1532 119.903C50.3682 120.609 50.6959 121.231 51.1223 121.758C51.5488 122.281 52.0915 122.703 52.7329 123.012C53.3743 123.321 54.1391 123.476 55.006 123.476C55.7531 123.476 56.4368 123.353 57.0324 123.107C57.628 122.861 58.1426 122.513 58.5549 122.071C58.9707 121.628 59.2879 121.087 59.4959 120.465C59.7038 119.846 59.7954 119.147 59.7602 118.385H55.1082V117.675H60.4721V123.887H59.7602V121.206C59.6051 121.659 59.3725 122.078 59.0694 122.443C58.7628 122.812 58.3963 123.128 57.9769 123.381C57.5611 123.634 57.0888 123.834 56.5743 123.975C56.0633 124.115 55.5205 124.186 54.9672 124.186V124.189ZM54.9849 110.999C54.0369 110.999 53.1875 111.178 52.4545 111.537C51.725 111.892 51.0977 112.38 50.5937 112.988C50.0897 113.596 49.7021 114.305 49.4378 115.107C49.1735 115.908 49.0395 116.761 49.0395 117.647C49.0395 118.532 49.1699 119.4 49.4272 120.187C49.6845 120.974 50.0686 121.67 50.5726 122.253C51.0765 122.836 51.7003 123.304 52.4333 123.641C53.1629 123.978 54.0157 124.151 54.9637 124.151C55.5135 124.151 56.0492 124.08 56.5602 123.94C57.0712 123.799 57.5364 123.602 57.9523 123.349C58.3681 123.1 58.7311 122.787 59.0342 122.418C59.3373 122.053 59.5699 121.635 59.7214 121.182V121.168H59.7954V123.848H60.4262V117.717H55.1435V118.35H59.7954V118.367C59.8307 119.14 59.7425 119.853 59.5311 120.482C59.3196 121.111 58.9989 121.656 58.5796 122.102C58.1602 122.548 57.6456 122.9 57.043 123.146C56.4439 123.392 55.7567 123.518 55.0025 123.518C54.132 123.518 53.3602 123.36 52.7118 123.047C52.0633 122.735 51.5171 122.309 51.0871 121.782C50.6571 121.255 50.3294 120.626 50.1109 119.917C49.8924 119.207 49.7831 118.444 49.7831 117.647C49.7831 116.849 49.8959 116.097 50.1215 115.374C50.3435 114.653 50.6783 114.007 51.1153 113.455C51.5523 112.904 52.1021 112.457 52.747 112.127C53.3955 111.797 54.1532 111.632 55.0025 111.632C56.169 111.632 57.1487 111.948 57.917 112.57C58.6782 113.192 59.2174 114.06 59.5099 115.156H60.2148C60.1091 114.513 59.8976 113.93 59.584 113.424C59.2668 112.911 58.8756 112.468 58.4139 112.106C57.9523 111.744 57.4201 111.467 56.8386 111.28C56.2536 111.094 55.6298 110.999 54.9884 110.999H54.9849Z" fill="white" stroke="white" stroke-miterlimit="10"/>
<path d="M54.9647 124.425C53.9779 124.425 53.0863 124.245 52.318 123.89C51.5497 123.536 50.8942 123.044 50.3656 122.432C49.8405 121.821 49.4352 121.097 49.1674 120.275C48.8995 119.46 48.7656 118.574 48.7656 117.647C48.7656 116.719 48.9031 115.848 49.178 115.019C49.4528 114.186 49.8581 113.445 50.3832 112.812C50.9119 112.176 51.5674 111.663 52.3356 111.291C53.1039 110.918 53.9955 110.729 54.9858 110.729C55.6554 110.729 56.3074 110.827 56.9206 111.024C57.5374 111.22 58.0942 111.512 58.5841 111.895C59.0704 112.278 59.4863 112.745 59.8211 113.286C60.1559 113.831 60.3814 114.456 60.4907 115.142L60.5365 115.437H59.2995L59.2537 115.261C58.9717 114.2 58.4642 113.374 57.7453 112.787C57.0299 112.204 56.1065 111.909 55.007 111.909C54.2035 111.909 53.4881 112.067 52.8784 112.376C52.2652 112.686 51.7471 113.107 51.3348 113.631C50.9189 114.158 50.6017 114.773 50.3868 115.461C50.1718 116.157 50.0625 116.895 50.0625 117.65C50.0625 118.406 50.1683 119.158 50.3797 119.843C50.5876 120.517 50.8978 121.115 51.3066 121.617C51.7119 122.116 52.2264 122.517 52.8361 122.808C53.4458 123.1 54.1753 123.251 55.007 123.251C55.7259 123.251 56.3744 123.131 56.9418 122.9C57.5057 122.668 57.992 122.337 58.3832 121.923C58.7744 121.505 59.0739 120.992 59.2748 120.401C59.4545 119.871 59.5391 119.277 59.5356 118.631H54.8766V117.45H60.7127V124.133H59.5286V122.236C59.444 122.362 59.3523 122.485 59.2572 122.601C58.933 122.991 58.5453 123.325 58.1048 123.592C57.6678 123.855 57.1779 124.063 56.6422 124.21C56.1101 124.358 55.5462 124.432 54.9718 124.432L54.9647 124.425ZM54.9823 111.238C54.0696 111.238 53.2555 111.41 52.5577 111.751C51.8564 112.092 51.2572 112.559 50.7779 113.139C50.2951 113.722 49.918 114.411 49.6643 115.18C49.407 115.957 49.2802 116.786 49.2802 117.65C49.2802 118.515 49.407 119.354 49.6572 120.12C49.9039 120.879 50.274 121.547 50.7568 122.106C51.2361 122.664 51.8352 123.11 52.5365 123.434C53.2378 123.757 54.0555 123.922 54.9682 123.922C55.4969 123.922 56.0114 123.855 56.5013 123.718C56.9911 123.585 57.4387 123.395 57.8334 123.156C58.2246 122.921 58.57 122.622 58.8554 122.278C59.0845 122.004 59.2678 121.698 59.4052 121.364C59.2219 121.698 59.0034 122 58.7532 122.271C58.3127 122.741 57.7664 123.114 57.1321 123.374C56.5013 123.634 55.7858 123.764 54.9999 123.764C54.0907 123.764 53.2872 123.599 52.607 123.272C51.9268 122.945 51.3524 122.499 50.9013 121.944C50.4502 121.392 50.1083 120.735 49.8828 119.997C49.6572 119.267 49.5445 118.48 49.5445 117.657C49.5445 116.835 49.6608 116.062 49.8934 115.317C50.126 114.569 50.4749 113.898 50.926 113.322C51.3841 112.742 51.9586 112.274 52.6387 111.93C53.3224 111.586 54.1154 111.41 54.9999 111.41C56.2228 111.41 57.2519 111.744 58.0625 112.401C58.8237 113.019 59.37 113.873 59.6871 114.934H59.9268C59.814 114.428 59.6308 113.968 59.3805 113.56C59.081 113.072 58.7039 112.65 58.2634 112.306C57.8228 111.962 57.3189 111.698 56.7621 111.519C56.1982 111.34 55.6026 111.249 54.9823 111.249V111.238ZM60.029 123.616H60.1876V117.956H55.377V118.114H60.0184L60.029 118.36C60.0572 118.971 60.0078 119.544 59.888 120.075L59.9867 119.78V120.935H60.029V123.616Z" fill="white" stroke="white" stroke-miterlimit="10"/>
<path d="M62.5781 111.281H71.0679V111.952H63.357V116.994H70.6063V117.665H63.357V123.203H71.156V123.874H62.5781V111.285V111.281Z" fill="white" stroke="white" stroke-miterlimit="10"/>
<path d="M71.3939 124.105H62.3438V111.045H71.3058V112.187H63.5948V116.758H70.8441V117.9H63.5948V122.967H71.3939V124.108V124.105ZM62.816 123.634H70.9217V123.434H63.1226V117.426H70.3719V117.225H63.1226V111.713H70.8336V111.512H62.816V123.631V123.634Z" fill="white" stroke="white" stroke-miterlimit="10"/>
<path d="M71.1792 123.892H62.5625V111.264H71.0911V111.973H63.3801V116.977H70.6294V117.687H63.3801V123.185H71.1792V123.895V123.892ZM62.6013 123.853H71.1404V123.22H63.3413V117.644H70.5906V117.012H63.3413V111.931H71.0523V111.299H62.6013V123.849V123.853Z" fill="white" stroke="white" stroke-miterlimit="10"/>
<path d="M71.4171 124.126H62.3281V111.027H71.329V112.208H63.618V116.74H70.8673V117.921H63.618V122.949H71.4171V124.13V124.126ZM62.8391 123.617H70.906V123.458H63.107V117.412H70.3563V117.253H63.107V111.698H70.8179V111.54H62.8391V123.62V123.617Z" fill="white" stroke="white" stroke-miterlimit="10"/>
<path d="M72.4922 111.281H73.4649L81.4401 122.83H81.4754V111.281H82.2542V123.87H81.3344L73.3063 112.233H73.271V123.87H72.4922V111.281Z" fill="white" stroke="white" stroke-miterlimit="10"/>
<path d="M82.4921 124.105H81.2128L73.5089 112.939V124.105H72.2578V111.045H73.59L81.241 122.123V111.045H82.4921V124.105ZM81.4595 123.634H82.0199V111.516H81.7133V123.065H81.3186L73.3433 111.516H72.7301V123.634H73.0367V111.997H73.4314L81.4595 123.634Z" fill="white" stroke="white" stroke-miterlimit="10"/>
<path d="M82.2766 123.89H81.3251L81.318 123.883L73.2934 112.253H73.2864V123.89H72.4688V111.262H73.4732L73.4802 111.269L81.452 122.811H81.4555V111.262H82.2731V123.89H82.2766ZM81.3498 123.851H82.2379V111.3H81.4978V122.85H81.4308L81.4238 122.843L73.452 111.3H72.511V123.851H73.2511V112.214H73.3181L73.3251 112.221L81.3498 123.851Z" fill="white" stroke="white" stroke-miterlimit="10"/>
<path d="M82.511 124.126H81.2L81.1295 124.024L73.5242 113.002V124.126H72.2344V111.027H73.5982L73.6687 111.129L81.2176 122.06V111.023H82.5074V124.122L82.511 124.126ZM81.4713 123.616H82V111.536H81.7321V123.086H81.3057L81.2352 122.984L73.3304 111.536H72.7489V123.616H73.0132V111.979H73.4397L73.5101 112.081L81.4678 123.616H81.4713Z" fill="white" stroke="white" stroke-miterlimit="10"/>
<path d="M84.0035 117.575C84.0035 116.658 84.1374 115.798 84.4088 114.993C84.6802 114.188 85.0714 113.489 85.5859 112.895C86.0969 112.302 86.7277 111.834 87.4784 111.493C88.2255 111.153 89.0713 110.98 90.0158 110.98C90.7594 110.98 91.4008 111.079 91.9436 111.272C92.4863 111.465 92.9444 111.708 93.3145 111.996C93.6845 112.284 93.9911 112.6 94.2237 112.941C94.4599 113.282 94.6396 113.602 94.7629 113.9C94.8863 114.199 94.9709 114.459 95.0202 114.677C95.066 114.895 95.0907 115.014 95.0907 115.039H94.3118C94.2308 114.508 94.0581 114.037 93.7973 113.619C93.5365 113.201 93.2123 112.846 92.8246 112.551C92.437 112.256 92.0035 112.035 91.5242 111.88C91.0449 111.729 90.5409 111.652 90.0123 111.652C89.1876 111.652 88.4511 111.81 87.8026 112.126C87.1542 112.442 86.6044 112.871 86.1568 113.405C85.7092 113.939 85.3674 114.564 85.1313 115.281C84.8951 115.998 84.7788 116.76 84.7788 117.572C84.7788 118.384 84.8951 119.146 85.1313 119.863C85.3674 120.58 85.7092 121.205 86.1568 121.739C86.6044 122.273 87.1542 122.698 87.8026 123.018C88.4511 123.334 89.1876 123.492 90.0123 123.492C90.6255 123.492 91.1999 123.366 91.7356 123.113C92.2713 122.86 92.74 122.526 93.1418 122.108C93.5436 121.69 93.8643 121.209 94.1039 120.664C94.3471 120.116 94.4845 119.55 94.5198 118.963H95.2986C95.2281 119.715 95.0413 120.407 94.7418 121.043C94.4422 121.679 94.0581 122.227 93.5929 122.691C93.1277 123.155 92.5885 123.517 91.9753 123.777C91.3621 124.037 90.7066 124.163 90.0123 124.163C89.0678 124.163 88.222 123.991 87.4749 123.654C86.7242 123.313 86.0969 122.846 85.5824 122.252C85.0678 121.658 84.6766 120.959 84.4053 120.154C84.1339 119.35 84 118.489 84 117.572L84.0035 117.575Z" fill="white" stroke="white" stroke-miterlimit="10"/>
<path d="M90.0219 124.407C89.0492 124.407 88.1611 124.227 87.3857 123.872C86.6104 123.518 85.9444 123.026 85.4122 122.411C84.88 121.796 84.4712 121.065 84.1928 120.232C83.9144 119.407 83.7734 118.514 83.7734 117.573C83.7734 116.631 83.9144 115.739 84.1928 114.916C84.4712 114.087 84.8836 113.353 85.4122 112.738C85.9444 112.12 86.6104 111.628 87.3857 111.276C88.1611 110.921 89.0492 110.742 90.0219 110.742C90.7866 110.742 91.4633 110.844 92.0307 111.048C92.5945 111.248 93.0773 111.505 93.465 111.807C93.8527 112.109 94.1769 112.443 94.4236 112.801C94.6703 113.156 94.8571 113.493 94.9875 113.806C95.1143 114.119 95.206 114.393 95.2553 114.621C95.3293 114.958 95.3328 114.997 95.3328 115.032V115.268H94.117L94.0853 115.067C94.0077 114.572 93.8456 114.126 93.606 113.736C93.3628 113.346 93.0562 113.008 92.6932 112.731C92.3267 112.453 91.9144 112.242 91.4633 112.098C91.0122 111.954 90.5258 111.881 90.0219 111.881C89.236 111.881 88.5276 112.032 87.9144 112.334C87.2976 112.636 86.7725 113.044 86.3461 113.553C85.9197 114.063 85.5884 114.667 85.3629 115.352C85.1373 116.041 85.021 116.789 85.021 117.569C85.021 118.349 85.1373 119.098 85.3629 119.786C85.5884 120.471 85.9197 121.076 86.3461 121.585C86.769 122.091 87.2976 122.502 87.9144 122.804C88.5276 123.103 89.236 123.258 90.0219 123.258C90.5963 123.258 91.1426 123.138 91.6465 122.903C92.154 122.664 92.6051 122.341 92.9822 121.947C93.3628 121.554 93.6694 121.09 93.902 120.57C94.1311 120.05 94.265 119.505 94.2967 118.95L94.3108 118.729H95.5725L95.5478 118.985C95.4738 119.762 95.28 120.489 94.9698 121.146C94.6597 121.803 94.258 122.379 93.7751 122.861C93.2923 123.342 92.7214 123.725 92.0835 123.995C91.4421 124.266 90.7514 124.403 90.0289 124.403L90.0219 124.407ZM90.0219 111.217C89.1161 111.217 88.295 111.382 87.5831 111.705C86.8677 112.032 86.258 112.481 85.7717 113.047C85.2818 113.616 84.9012 114.294 84.6404 115.067C84.3796 115.844 84.2457 116.687 84.2457 117.576C84.2457 118.465 84.3796 119.308 84.6404 120.085C84.9012 120.858 85.2818 121.536 85.7717 122.105C86.2615 122.671 86.8677 123.121 87.5831 123.447C88.2985 123.774 89.1197 123.936 90.0219 123.936C90.6809 123.936 91.3117 123.813 91.8932 123.567C92.4747 123.321 92.9928 122.973 93.4368 122.534C93.8809 122.091 94.2509 121.557 94.5399 120.953C94.7936 120.419 94.9628 119.832 95.0474 119.21H94.7513C94.695 119.744 94.5575 120.268 94.3355 120.77C94.0853 121.339 93.7434 121.849 93.3276 122.284C92.9082 122.72 92.4113 123.075 91.8509 123.338C91.287 123.605 90.6703 123.739 90.0254 123.739C89.1655 123.739 88.3866 123.57 87.71 123.24C87.0333 122.91 86.4554 122.46 85.9866 121.901C85.5214 121.346 85.162 120.689 84.9188 119.944C84.6756 119.206 84.5523 118.412 84.5523 117.58C84.5523 116.747 84.6756 115.953 84.9188 115.215C85.162 114.474 85.5214 113.817 85.9866 113.258C86.4554 112.699 87.0333 112.25 87.71 111.919C88.3866 111.589 89.1655 111.42 90.0254 111.42C90.5787 111.42 91.1108 111.501 91.6113 111.659C92.1117 111.821 92.5734 112.056 92.9822 112.365C93.391 112.675 93.7399 113.054 94.0113 113.497C94.2544 113.887 94.4236 114.326 94.5223 114.804H94.8183C94.8148 114.779 94.8077 114.755 94.8007 114.727C94.7584 114.523 94.6738 114.277 94.5575 113.992C94.4412 113.711 94.2685 113.402 94.043 113.075C93.821 112.755 93.532 112.457 93.1831 112.183C92.8342 111.912 92.3937 111.68 91.8791 111.494C91.3646 111.311 90.7443 111.217 90.0324 111.217H90.0219Z" fill="white" stroke="white" stroke-miterlimit="10"/>
<path d="M90.0178 124.19C89.0769 124.19 88.2205 124.018 87.4733 123.677C86.7262 123.336 86.0883 122.862 85.5738 122.272C85.0628 121.678 84.6645 120.972 84.3932 120.167C84.1218 119.362 83.9844 118.491 83.9844 117.577C83.9844 116.664 84.1218 115.793 84.3932 114.988C84.6645 114.183 85.0593 113.477 85.5738 112.883C86.0848 112.289 86.7262 111.819 87.4733 111.478C88.2205 111.137 89.0769 110.965 90.0178 110.965C90.7579 110.965 91.4099 111.063 91.9526 111.256C92.4953 111.45 92.957 111.696 93.3271 111.984C93.6971 112.272 94.0072 112.592 94.2433 112.932C94.4795 113.273 94.6627 113.6 94.7861 113.899C94.9094 114.197 94.9975 114.461 95.0433 114.679C95.1068 114.97 95.1138 115.027 95.1138 115.044V115.065H94.2997V115.048C94.2152 114.524 94.0425 114.05 93.7852 113.635C93.5279 113.221 93.2037 112.866 92.816 112.574C92.4319 112.282 91.9949 112.058 91.5227 111.906C91.0469 111.755 90.5429 111.678 90.0178 111.678C89.2002 111.678 88.4566 111.836 87.8152 112.152C87.1738 112.469 86.6205 112.894 86.1764 113.424C85.7324 113.955 85.387 114.584 85.1544 115.297C84.9218 116.007 84.802 116.776 84.802 117.584C84.802 118.393 84.9218 119.159 85.1544 119.872C85.387 120.582 85.7324 121.214 86.1764 121.745C86.6205 122.275 87.1703 122.704 87.8152 123.016C88.4566 123.333 89.1967 123.491 90.0178 123.491C90.624 123.491 91.2019 123.364 91.7341 123.115C92.2663 122.865 92.7385 122.528 93.1332 122.113C93.5314 121.699 93.8522 121.218 94.0918 120.673C94.3314 120.132 94.4724 119.559 94.5041 118.979V118.962H95.3253V118.983C95.2513 119.735 95.0645 120.437 94.7649 121.07C94.4654 121.702 94.0777 122.261 93.6125 122.725C93.1473 123.189 92.6011 123.554 91.9878 123.814C91.3746 124.074 90.7121 124.204 90.0178 124.204V124.19ZM90.0178 111C89.0804 111 88.231 111.172 87.4874 111.509C86.7438 111.847 86.1095 112.318 85.602 112.908C85.0945 113.498 84.6998 114.201 84.4284 114.998C84.1606 115.8 84.0231 116.664 84.0231 117.574C84.0231 118.484 84.1606 119.352 84.4284 120.149C84.6963 120.95 85.091 121.653 85.602 122.24C86.1095 122.83 86.7438 123.298 87.4874 123.638C88.231 123.976 89.0804 124.148 90.0178 124.148C90.705 124.148 91.3641 124.018 91.9738 123.761C92.5799 123.505 93.1226 123.143 93.5843 122.679C94.046 122.219 94.4301 121.667 94.7297 121.035C95.0257 120.409 95.2125 119.721 95.283 118.983H94.5464C94.5077 119.563 94.3702 120.132 94.1306 120.673C93.8874 121.221 93.5632 121.709 93.1614 122.124C92.7597 122.542 92.2874 122.879 91.7482 123.132C91.2125 123.385 90.6275 123.512 90.0143 123.512C89.1896 123.512 88.4425 123.35 87.794 123.034C87.1456 122.718 86.5888 122.286 86.1412 121.752C85.6936 121.218 85.3482 120.585 85.1121 119.868C84.876 119.152 84.7562 118.379 84.7562 117.57C84.7562 116.762 84.876 115.986 85.1121 115.273C85.3482 114.556 85.6936 113.923 86.1412 113.389C86.5888 112.855 87.1456 112.423 87.794 112.107C88.4425 111.791 89.1896 111.629 90.0143 111.629C90.5429 111.629 91.0539 111.706 91.5332 111.857C92.009 112.008 92.4495 112.237 92.8372 112.532C93.2248 112.827 93.5561 113.185 93.8134 113.604C94.0707 114.018 94.2433 114.492 94.3279 115.013H95.068C95.061 114.967 95.0398 114.854 95.001 114.675C94.9552 114.461 94.8671 114.201 94.7473 113.902C94.624 113.607 94.4442 113.284 94.2116 112.947C93.979 112.609 93.6724 112.293 93.3059 112.008C92.9394 111.724 92.4777 111.481 91.942 111.288C91.4028 111.095 90.7579 111 90.0213 111H90.0178Z" fill="white" stroke="white" stroke-miterlimit="10"/>
<path d="M90.0196 124.425C89.0434 124.425 88.1553 124.245 87.3764 123.89C86.5976 123.536 85.9315 123.044 85.3958 122.422C84.8636 121.807 84.4513 121.073 84.1694 120.24C83.891 119.414 83.75 118.515 83.75 117.577C83.75 116.638 83.891 115.739 84.1694 114.913C84.4513 114.08 84.8636 113.346 85.3958 112.731C85.9315 112.113 86.5976 111.617 87.3764 111.263C88.1553 110.908 89.0434 110.729 90.0196 110.729C90.7878 110.729 91.4645 110.83 92.0319 111.034C92.5958 111.238 93.0821 111.491 93.4733 111.797C93.8645 112.099 94.1887 112.436 94.4389 112.798C94.6856 113.153 94.8759 113.494 95.0028 113.806C95.1332 114.119 95.2213 114.393 95.2742 114.625C95.3517 114.98 95.3517 115.008 95.3517 115.04V115.296H94.0971L94.0618 115.082C93.9843 114.59 93.8222 114.144 93.5825 113.757C93.3394 113.367 93.0363 113.033 92.6733 112.759C92.3103 112.485 91.898 112.271 91.4504 112.13C90.9993 111.986 90.5165 111.913 90.016 111.913C89.2337 111.913 88.5288 112.064 87.9191 112.362C87.3059 112.661 86.7808 113.072 86.3579 113.575C85.9315 114.084 85.6037 114.685 85.3782 115.37C85.1526 116.059 85.0363 116.804 85.0363 117.584C85.0363 118.364 85.1526 119.108 85.3782 119.797C85.6037 120.479 85.9315 121.083 86.3579 121.593C86.7808 122.098 87.3059 122.506 87.9191 122.805C88.5288 123.103 89.2337 123.254 90.016 123.254C90.587 123.254 91.1332 123.135 91.6301 122.9C92.1341 122.661 92.5817 122.341 92.9587 121.947C93.3358 121.554 93.646 121.094 93.875 120.574C94.1041 120.057 94.2345 119.512 94.2698 118.961L94.2874 118.722H95.5843L95.5596 119C95.4856 119.78 95.2918 120.507 94.9781 121.164C94.668 121.821 94.2627 122.401 93.7764 122.886C93.29 123.37 92.7191 123.753 92.0777 124.024C91.4363 124.294 90.742 124.432 90.016 124.432L90.0196 124.425ZM90.0196 111.238C89.1174 111.238 88.2998 111.403 87.5879 111.726C86.876 112.05 86.2698 112.499 85.7835 113.062C85.2936 113.627 84.9165 114.305 84.6557 115.075C84.3949 115.851 84.261 116.691 84.261 117.577C84.261 118.462 84.3949 119.305 84.6557 120.078C84.9165 120.848 85.2936 121.526 85.7835 122.091C86.2698 122.654 86.876 123.103 87.5879 123.427C88.2998 123.75 89.1174 123.915 90.0196 123.915C90.6751 123.915 91.3024 123.792 91.8839 123.546C92.4618 123.3 92.9799 122.956 93.4204 122.517C93.8645 122.074 94.2345 121.543 94.52 120.939C94.7702 120.412 94.9358 119.836 95.0204 119.224H94.7632C94.7068 119.755 94.5658 120.275 94.3473 120.774C94.0935 121.347 93.7552 121.856 93.3323 122.292C92.9129 122.731 92.4125 123.086 91.8522 123.353C91.2848 123.62 90.668 123.757 90.0196 123.757C89.1597 123.757 88.3773 123.588 87.6971 123.254C87.0205 122.921 86.4354 122.471 85.9703 121.912C85.5015 121.354 85.1421 120.697 84.8989 119.952C84.6557 119.214 84.5324 118.416 84.5324 117.58C84.5324 116.744 84.6557 115.946 84.8989 115.208C85.1421 114.463 85.5051 113.803 85.9703 113.248C86.439 112.689 87.0205 112.236 87.6971 111.906C88.3773 111.572 89.1597 111.403 90.0196 111.403C90.5729 111.403 91.1085 111.484 91.609 111.646C92.1129 111.807 92.5746 112.046 92.9834 112.355C93.3958 112.668 93.7447 113.047 94.0195 113.49C94.2592 113.877 94.4319 114.312 94.5306 114.79H94.7843C94.7843 114.79 94.7772 114.755 94.7737 114.738C94.7314 114.537 94.6469 114.288 94.5306 114.007C94.4143 113.726 94.2416 113.42 94.016 113.093C93.7975 112.777 93.5085 112.478 93.1596 112.208C92.8107 111.937 92.3737 111.709 91.8592 111.523C91.3482 111.34 90.7279 111.245 90.0196 111.245V111.238Z" fill="white" stroke="white" stroke-miterlimit="10"/>
<path d="M104.979 111.281H105.846L100.772 118.6V123.87H99.9927V118.6L94.9531 111.281H95.8377L100.402 117.947L104.983 111.281H104.979Z" fill="white" stroke="white" stroke-miterlimit="10"/>
<path d="M101.01 124.105H99.7589V118.669L94.5078 111.045H95.9668L100.404 117.528L104.858 111.045H106.3L101.01 118.673V124.108V124.105ZM100.231 123.634H100.538V118.525L105.398 111.516H105.105L100.4 118.364L95.7131 111.516H95.403L100.231 118.525V123.634Z" fill="white" stroke="white" stroke-miterlimit="10"/>
<path d="M100.789 123.891H99.9713V118.607L94.9141 111.263H95.8444L95.8515 111.27L100.398 117.911L104.969 111.26H105.885L105.864 111.291L100.792 118.603V123.888L100.789 123.891ZM100.01 123.852H100.75V118.593L105.804 111.302H104.986L100.394 117.981L100.377 117.957L95.8198 111.298H94.9845L100.007 118.589V123.849L100.01 123.852Z" fill="white" stroke="white" stroke-miterlimit="10"/>
<path d="M101.027 124.126H99.7374V118.676L94.4688 111.023H95.9736L96.0441 111.125L100.4 117.492L104.844 111.023H106.331L106.056 111.424L101.027 118.676V124.122V124.126ZM100.248 123.616H100.516V118.521L100.555 118.462L105.359 111.536H105.115L100.4 118.398L95.7022 111.536H95.4379L100.248 118.518V123.613V123.616Z" fill="white" stroke="white" stroke-miterlimit="10"/>
<path opacity="0.14" d="M102.797 52.7502C104.876 54.7986 106.937 56.9525 108.985 59.2117C121.707 73.259 145.168 66.3935 140.964 84.7485C137.94 97.935 127.001 108.827 120.749 114.147C106.324 126.42 90.2503 133.106 74.2645 133.475L58.677 131.852L58.5536 130.727C82.5429 135.66 105.651 125.334 119.907 113.205C126.07 107.959 136.851 97.2323 139.811 84.3198C143.878 66.5762 94.8388 44.3492 82.3702 30.5829C69.3764 16.2369 89.3058 11.3144 75.4381 5.85077C47.766 -5.04488 20.0411 7.44945 3.32576 22.7722C-3.73322 29.2408 6.32486 43.1862 9.57771 60.8596C10.4482 65.5889 12.3548 70.5501 15.4138 76.0383C23.0226 89.6956 13.5601 101.02 24.1679 110.981C35.0577 121.213 46.7299 127.85 58.8567 130.706L58.7615 131.845C46.3951 128.928 34.5079 122.175 23.4314 111.772C12.7495 101.733 27.5617 77.0994 19.8543 63.2629C16.7248 57.6446 14.7653 52.5464 13.8702 47.6766C10.5222 29.4937 -4.74819 28.4607 2.45528 21.8552C19.3997 6.32159 47.544 -6.32383 75.7165 4.7721C87.5896 9.44869 91.5719 41.6894 102.797 52.7502Z" fill="white" stroke="white" stroke-width="0.25" stroke-miterlimit="10"/>
</g>
<defs>
<clipPath id="clip0_1038_2900">
<rect width="141" height="133" fill="white" transform="translate(0.5 0.521484)"/>
</clipPath>
</defs>
</svg>
